<?xml version="1.0" encoding="utf-8"?>
<!-- Generator: Adobe Illustrator 19.1.0, SVG Export Plug-In . SVG Version: 6.00 Build 0)  -->
<svg version="1.1" id="Lag_1" xmlns="http://www.w3.org/2000/svg" xmlns:xlink="http://www.w3.org/1999/xlink" x="0px" y="0px"
	 viewBox="0 0 36.1 36.1" style="enable-background:new 0 0 36.1 36.1;" xml:space="preserve">
<style type="text/css">
	.st0{fill:#F6F6F6;}
	.st1{fill:#FFFFFF;}
</style>
<g>
	<g>
		<path class="st1" d="M13.4,13.8c2.6,2.6,0.1,9.3-2.5,11.9c-2.6,2.6-2.2-4.3-4.8-6.9c-2.6-2.6-8.8,1.7-4.6-2.5
			C4.1,13.7,10.8,11.2,13.4,13.8"/>
		<path class="st1" d="M22.2,13.4c-2.6,2.6-9.3,0.1-11.9-2.5C7.6,8.2,14.5,8.6,17.1,6c2.6-2.6-1.7-8.8,2.5-4.6
			C22.3,4.1,24.8,10.8,22.2,13.4"/>
		<path class="st1" d="M22.7,22.2c-2.6-2.6-0.1-9.3,2.5-11.9c2.6-2.6,2.2,4.3,4.8,6.9c2.6,2.6,8.8-1.7,4.6,2.5
			C32,22.4,25.3,24.8,22.7,22.2"/>
		<path class="st1" d="M13.9,22.7c2.6-2.6,9.3-0.1,11.9,2.5c2.6,2.6-4.3,2.2-6.9,4.8c-2.6,2.6,1.7,8.8-2.5,4.6
			C13.8,32,11.3,25.3,13.9,22.7"/>
	</g>
</g>
</svg>
